<mxfile host="app.diagrams.net" agent="Mozilla/5.0 (Windows NT 10.0; Win64; x64) AppleWebKit/537.36 (KHTML, like Gecko) Chrome/141.0.0.0 Safari/537.36" version="28.2.7">
  <diagram name="Página-1" id="bo2IhFi5Le9MDu-2FutS">
    <mxGraphModel dx="1042" dy="527" grid="1" gridSize="10" guides="1" tooltips="1" connect="1" arrows="1" fold="1" page="1" pageScale="1" pageWidth="827" pageHeight="1169" math="0" shadow="0">
      <root>
        <mxCell id="0" />
        <mxCell id="1" parent="0" />
        <mxCell id="NDSV6K7ACIRBF6qvPvsR-30" value="" style="whiteSpace=wrap;html=1;fillColor=none;" parent="1" vertex="1">
          <mxGeometry x="155" y="420" width="590" height="465" as="geometry" />
        </mxCell>
        <mxCell id="NDSV6K7ACIRBF6qvPvsR-12" style="edgeStyle=orthogonalEdgeStyle;rounded=0;orthogonalLoop=1;jettySize=auto;html=1;" parent="1" source="sJrj8VgzoGahPNYFeS-o-10" target="NDSV6K7ACIRBF6qvPvsR-8" edge="1">
          <mxGeometry relative="1" as="geometry" />
        </mxCell>
        <mxCell id="sJrj8VgzoGahPNYFeS-o-10" value="" style="verticalLabelPosition=bottom;shadow=0;dashed=0;align=center;html=1;verticalAlign=top;strokeWidth=1;shape=mxgraph.mockup.containers.userMale;strokeColor=#666666;strokeColor2=#008cff;" parent="1" vertex="1">
          <mxGeometry x="40" y="490" width="70" height="60" as="geometry" />
        </mxCell>
        <mxCell id="NDSV6K7ACIRBF6qvPvsR-2" value="Costumer" style="text;html=1;whiteSpace=wrap;strokeColor=none;fillColor=none;align=center;verticalAlign=middle;rounded=0;" parent="1" vertex="1">
          <mxGeometry x="50" y="550" width="50" height="30" as="geometry" />
        </mxCell>
        <mxCell id="NDSV6K7ACIRBF6qvPvsR-13" style="edgeStyle=orthogonalEdgeStyle;rounded=0;orthogonalLoop=1;jettySize=auto;html=1;" parent="1" source="NDSV6K7ACIRBF6qvPvsR-8" target="NDSV6K7ACIRBF6qvPvsR-10" edge="1">
          <mxGeometry relative="1" as="geometry" />
        </mxCell>
        <mxCell id="NDSV6K7ACIRBF6qvPvsR-22" value="Transcodificação" style="edgeLabel;html=1;align=center;verticalAlign=middle;resizable=0;points=[];" parent="NDSV6K7ACIRBF6qvPvsR-13" vertex="1" connectable="0">
          <mxGeometry x="0.0295" y="-4" relative="1" as="geometry">
            <mxPoint as="offset" />
          </mxGeometry>
        </mxCell>
        <mxCell id="NDSV6K7ACIRBF6qvPvsR-8" value="Amazon S3" style="sketch=0;outlineConnect=0;fontColor=#232F3E;gradientColor=none;strokeColor=#ffffff;fillColor=#232F3E;dashed=0;verticalLabelPosition=middle;verticalAlign=bottom;align=center;html=1;whiteSpace=wrap;fontSize=10;fontStyle=1;spacing=3;shape=mxgraph.aws4.productIcon;prIcon=mxgraph.aws4.s3;" parent="1" vertex="1">
          <mxGeometry x="220" y="475" width="70" height="90" as="geometry" />
        </mxCell>
        <mxCell id="NDSV6K7ACIRBF6qvPvsR-15" style="edgeStyle=orthogonalEdgeStyle;rounded=0;orthogonalLoop=1;jettySize=auto;html=1;" parent="1" source="NDSV6K7ACIRBF6qvPvsR-10" target="NDSV6K7ACIRBF6qvPvsR-14" edge="1">
          <mxGeometry relative="1" as="geometry">
            <Array as="points">
              <mxPoint x="360" y="665" />
              <mxPoint x="360" y="675" />
            </Array>
          </mxGeometry>
        </mxCell>
        <mxCell id="NDSV6K7ACIRBF6qvPvsR-20" style="edgeStyle=orthogonalEdgeStyle;rounded=0;orthogonalLoop=1;jettySize=auto;html=1;" parent="1" source="NDSV6K7ACIRBF6qvPvsR-10" target="NDSV6K7ACIRBF6qvPvsR-19" edge="1">
          <mxGeometry relative="1" as="geometry" />
        </mxCell>
        <mxCell id="NDSV6K7ACIRBF6qvPvsR-10" value="AWS Lambda" style="sketch=0;outlineConnect=0;fontColor=#232F3E;gradientColor=none;strokeColor=#ffffff;fillColor=#232F3E;dashed=0;verticalLabelPosition=middle;verticalAlign=bottom;align=center;html=1;whiteSpace=wrap;fontSize=10;fontStyle=1;spacing=3;shape=mxgraph.aws4.productIcon;prIcon=mxgraph.aws4.lambda;" parent="1" vertex="1">
          <mxGeometry x="260" y="620" width="60" height="90" as="geometry" />
        </mxCell>
        <mxCell id="NDSV6K7ACIRBF6qvPvsR-17" style="edgeStyle=orthogonalEdgeStyle;rounded=0;orthogonalLoop=1;jettySize=auto;html=1;" parent="1" source="NDSV6K7ACIRBF6qvPvsR-14" target="NDSV6K7ACIRBF6qvPvsR-16" edge="1">
          <mxGeometry relative="1" as="geometry" />
        </mxCell>
        <mxCell id="NDSV6K7ACIRBF6qvPvsR-18" style="edgeStyle=orthogonalEdgeStyle;rounded=0;orthogonalLoop=1;jettySize=auto;html=1;" parent="1" source="NDSV6K7ACIRBF6qvPvsR-14" target="NDSV6K7ACIRBF6qvPvsR-10" edge="1">
          <mxGeometry relative="1" as="geometry" />
        </mxCell>
        <mxCell id="NDSV6K7ACIRBF6qvPvsR-14" value="AWS Elemental MediaConvert" style="sketch=0;outlineConnect=0;fontColor=#232F3E;gradientColor=none;strokeColor=#ffffff;fillColor=#232F3E;dashed=0;verticalLabelPosition=middle;verticalAlign=bottom;align=center;html=1;whiteSpace=wrap;fontSize=10;fontStyle=1;spacing=3;shape=mxgraph.aws4.productIcon;prIcon=mxgraph.aws4.elemental_mediaconvert;" parent="1" vertex="1">
          <mxGeometry x="400" y="620" width="60" height="100" as="geometry" />
        </mxCell>
        <mxCell id="NDSV6K7ACIRBF6qvPvsR-26" style="edgeStyle=orthogonalEdgeStyle;rounded=0;orthogonalLoop=1;jettySize=auto;html=1;" parent="1" source="NDSV6K7ACIRBF6qvPvsR-16" target="NDSV6K7ACIRBF6qvPvsR-25" edge="1">
          <mxGeometry relative="1" as="geometry" />
        </mxCell>
        <mxCell id="NDSV6K7ACIRBF6qvPvsR-16" value="Amazon S3" style="sketch=0;outlineConnect=0;fontColor=#232F3E;gradientColor=none;strokeColor=#ffffff;fillColor=#232F3E;dashed=0;verticalLabelPosition=middle;verticalAlign=bottom;align=center;html=1;whiteSpace=wrap;fontSize=10;fontStyle=1;spacing=3;shape=mxgraph.aws4.productIcon;prIcon=mxgraph.aws4.s3;" parent="1" vertex="1">
          <mxGeometry x="500" y="480" width="70" height="90" as="geometry" />
        </mxCell>
        <mxCell id="NDSV6K7ACIRBF6qvPvsR-19" value="Amazon DynamoDB" style="sketch=0;outlineConnect=0;fontColor=#232F3E;gradientColor=none;strokeColor=#ffffff;fillColor=#232F3E;dashed=0;verticalLabelPosition=middle;verticalAlign=bottom;align=center;html=1;whiteSpace=wrap;fontSize=10;fontStyle=1;spacing=3;shape=mxgraph.aws4.productIcon;prIcon=mxgraph.aws4.dynamodb;" parent="1" vertex="1">
          <mxGeometry x="262.5" y="750" width="65" height="90" as="geometry" />
        </mxCell>
        <mxCell id="NDSV6K7ACIRBF6qvPvsR-21" value="S3 Input" style="text;html=1;whiteSpace=wrap;strokeColor=none;fillColor=none;align=center;verticalAlign=middle;rounded=0;" parent="1" vertex="1">
          <mxGeometry x="225" y="450" width="60" height="30" as="geometry" />
        </mxCell>
        <mxCell id="NDSV6K7ACIRBF6qvPvsR-23" value="S3 Output" style="text;html=1;whiteSpace=wrap;strokeColor=none;fillColor=none;align=center;verticalAlign=middle;rounded=0;" parent="1" vertex="1">
          <mxGeometry x="505" y="450" width="60" height="30" as="geometry" />
        </mxCell>
        <mxCell id="NDSV6K7ACIRBF6qvPvsR-24" value="Salva os metadados" style="text;html=1;whiteSpace=wrap;strokeColor=none;fillColor=none;align=center;verticalAlign=middle;rounded=0;" parent="1" vertex="1">
          <mxGeometry x="265" y="840" width="60" height="30" as="geometry" />
        </mxCell>
        <mxCell id="NDSV6K7ACIRBF6qvPvsR-25" value="Amazon Cloudfront" style="sketch=0;outlineConnect=0;fontColor=#232F3E;gradientColor=none;strokeColor=#ffffff;fillColor=#232F3E;dashed=0;verticalLabelPosition=middle;verticalAlign=bottom;align=center;html=1;whiteSpace=wrap;fontSize=10;fontStyle=1;spacing=3;shape=mxgraph.aws4.productIcon;prIcon=mxgraph.aws4.cloudfront;" parent="1" vertex="1">
          <mxGeometry x="660" y="470" width="70" height="100" as="geometry" />
        </mxCell>
        <mxCell id="NDSV6K7ACIRBF6qvPvsR-27" value="" style="verticalLabelPosition=bottom;shadow=0;dashed=0;align=center;html=1;verticalAlign=top;strokeWidth=1;shape=mxgraph.mockup.containers.userMale;strokeColor=#666666;strokeColor2=#008cff;" parent="1" vertex="1">
          <mxGeometry x="750" y="680" width="70" height="60" as="geometry" />
        </mxCell>
        <mxCell id="NDSV6K7ACIRBF6qvPvsR-28" style="edgeStyle=orthogonalEdgeStyle;rounded=0;orthogonalLoop=1;jettySize=auto;html=1;entryX=0.509;entryY=0.007;entryDx=0;entryDy=0;entryPerimeter=0;" parent="1" source="NDSV6K7ACIRBF6qvPvsR-25" target="NDSV6K7ACIRBF6qvPvsR-27" edge="1">
          <mxGeometry relative="1" as="geometry" />
        </mxCell>
        <mxCell id="NDSV6K7ACIRBF6qvPvsR-29" value="User" style="text;html=1;whiteSpace=wrap;strokeColor=none;fillColor=none;align=center;verticalAlign=middle;rounded=0;" parent="1" vertex="1">
          <mxGeometry x="745" y="740" width="60" height="30" as="geometry" />
        </mxCell>
        <mxCell id="NDSV6K7ACIRBF6qvPvsR-31" value="" style="outlineConnect=0;dashed=0;verticalLabelPosition=bottom;verticalAlign=top;align=center;html=1;shape=mxgraph.aws3.cloud_2;fillColor=#F58534;gradientColor=none;" parent="1" vertex="1">
          <mxGeometry x="140" y="390" width="60" height="60" as="geometry" />
        </mxCell>
      </root>
    </mxGraphModel>
  </diagram>
</mxfile>
